<svg version="1.1" id="Layer_1" xmlns="http://www.w3.org/2000/svg" xmlns:xlink="http://www.w3.org/1999/xlink" x="0px" y="0px"
	 width="100%" viewBox="0 0 512 512" enable-background="new 0 0 512 512" xml:space="preserve"
>

<path fill="#1B0902" opacity="1.000000" stroke="none" 
	d="
M28.891411,233.039886 
	C24.737671,229.663559 20.492559,226.392456 16.453247,222.884384 
	C11.370808,218.470367 6.456666,213.862564 1.234952,209.669189 
	C1.000000,205.310745 1.000000,200.621490 1.000000,195.466125 
	C1.487818,195.004471 2.274370,195.205597 2.419803,194.984680 
	C6.138540,189.335556 12.163529,188.635330 17.994083,188.087982 
	C31.089594,186.858582 44.234200,186.156647 57.333683,184.963943 
	C73.831932,183.461792 90.296738,181.594299 106.792366,180.060684 
	C116.131279,179.192429 125.513123,178.792740 134.857620,177.975983 
	C148.918304,176.747009 162.972046,175.417313 176.998993,173.862122 
	C178.199951,173.728989 179.575089,171.762161 180.198532,170.350830 
	C186.507675,156.068588 192.739609,141.751312 198.870377,127.391449 
	C207.213303,107.850220 215.453217,88.265015 223.729401,68.695312 
	C230.244461,53.289902 236.819000,37.909031 243.220779,22.456625 
	C245.788040,16.259867 250.227051,12.654831 256.808258,12.093811 
	C262.534210,11.605700 267.863892,15.768277 270.548676,22.124020 
	C279.786804,43.993420 289.012085,65.868309 298.297974,87.717438 
	C309.850800,114.900459 321.453796,142.062149 333.057220,169.223633 
	C333.697510,170.722427 334.540039,172.134811 335.510498,174.018417 
	C347.790924,174.998337 360.402954,175.865250 372.985779,177.043640 
	C389.144318,178.556885 405.270966,180.410004 421.427948,181.941254 
	C430.607727,182.811264 439.832672,183.199844 449.015839,184.039825 
	C462.079590,185.234787 475.122284,186.658859 488.176941,187.954987 
	C491.606293,188.295471 495.088531,189.000778 498.472870,188.702744 
	C504.746063,188.150284 508.554260,191.916824 512.760132,195.331635 
	C513.000000,199.689255 513.000000,204.378510 513.000000,209.533875 
	C511.807892,210.692734 510.467224,211.215210 509.447296,212.105240 
	C501.528198,219.015778 493.670959,225.997177 485.056763,233.007706 
	C474.104950,236.058777 463.937836,239.230423 453.669250,242.030075 
	C399.212189,256.877228 343.513275,263.602844 287.308105,265.745026 
	C259.237366,266.814850 231.065811,265.446716 202.945648,264.888733 
	C194.502808,264.721161 186.046661,263.835754 177.654205,262.808655 
	C160.697449,260.733368 143.674118,258.928528 126.873093,255.922882 
	C105.295868,252.062775 83.847549,247.407410 62.467625,242.549271 
	C51.140148,239.975342 40.074989,236.247040 28.891411,233.039886 
z
M298.956818,439.113281 
	C297.500183,438.383636 296.043518,437.654022 294.687073,436.487366 
	C297.728333,434.023773 296.311798,432.741089 293.875031,432.395782 
	C292.385681,432.184723 290.739746,433.078247 289.164154,433.475647 
	C279.864532,427.909698 270.516418,422.422333 261.294495,416.730560 
	C258.488647,414.998749 256.361633,414.719482 253.275360,416.577576 
	C207.149399,444.347870 160.923462,471.952087 114.721992,499.596985 
	C109.835716,502.520691 102.815201,502.458679 98.632973,498.919189 
	C94.106636,495.088501 92.283875,490.529907 93.810234,484.125763 
	C101.078102,453.632111 107.888969,423.029541 114.856117,392.464264 
	C115.214096,390.893738 115.513428,389.309845 116.400841,387.452393 
	C123.053719,387.116669 129.146301,387.091614 135.237839,386.999146 
	C156.340454,386.678894 177.442719,386.337280 198.545059,385.999817 
	C219.148270,385.670380 239.750595,385.267395 260.354767,385.019775 
	C293.104858,384.626160 325.856781,384.383057 358.606567,383.967804 
	C367.397644,383.856354 376.181824,383.211029 384.972961,383.092194 
	C388.921417,383.038788 392.879211,383.677643 396.832764,384.002380 
	C400.453186,398.743774 404.073639,413.485138 407.452576,428.683899 
	C406.697449,429.783203 406.183746,430.425140 405.670044,431.067078 
	C406.476837,431.367340 407.283569,431.667603 408.090332,431.967896 
	C408.718811,434.059021 409.347290,436.150146 409.532654,438.646790 
	C408.108765,439.811188 407.156372,440.610687 406.140320,441.318878 
	C404.807404,442.247894 403.465515,443.796783 402.056091,443.880768 
	C392.782684,444.433197 383.491913,444.871063 374.203308,444.953705 
	C356.734283,445.109192 339.262512,445.054810 321.792999,444.929718 
	C319.567047,444.913757 317.193573,444.287994 315.158997,443.354797 
	C311.400177,441.630737 307.699463,439.686737 304.244629,437.422363 
	C301.436188,435.581573 300.032715,436.401764 298.956818,439.113281 
z
M396.907104,383.585632 
	C392.879211,383.677643 388.921417,383.038788 384.972961,383.092194 
	C376.181824,383.211029 367.397644,383.856354 358.606567,383.967804 
	C325.856781,384.383057 293.104858,384.626160 260.354767,385.019775 
	C239.750595,385.267395 219.148270,385.670380 198.545059,385.999817 
	C177.442719,386.337280 156.340454,386.678894 135.237839,386.999146 
	C129.146301,387.091614 123.053719,387.116669 116.564430,387.087646 
	C118.234970,377.410858 120.293625,367.817078 122.373032,358.227814 
	C124.320015,349.249207 126.288986,340.275360 128.825623,331.424683 
	C131.425034,332.033264 133.453827,332.958252 135.468079,332.927673 
	C147.931091,332.738434 160.389328,332.255585 172.851990,332.019073 
	C193.806168,331.621399 214.761673,331.272858 235.718018,331.016144 
	C267.499146,330.626801 299.282104,330.387451 331.062927,329.977661 
	C347.189728,329.769775 363.314178,329.356018 379.437653,328.953857 
	C381.236847,328.908966 383.022766,328.330444 384.814819,327.999390 
	C388.769012,345.241699 392.731812,362.482025 396.657684,379.730743 
	C396.911011,380.843719 396.880127,382.021362 396.907104,383.585632 
z
M29.023827,233.351624 
	C40.074989,236.247040 51.140148,239.975342 62.467625,242.549271 
	C83.847549,247.407410 105.295868,252.062775 126.873093,255.922882 
	C143.674118,258.928528 160.697449,260.733368 177.654205,262.808655 
	C186.046661,263.835754 194.502808,264.721161 202.945648,264.888733 
	C231.065811,265.446716 259.237366,266.814850 287.308105,265.745026 
	C343.513275,263.602844 399.212189,256.877228 453.669250,242.030075 
	C463.937836,239.230423 474.104950,236.058777 484.714355,233.050751 
	C477.833923,239.712234 470.648987,246.484482 463.259338,253.025467 
	C453.880249,261.327454 444.330811,269.436951 434.863922,277.639954 
	C432.138275,280.001709 429.444000,282.399719 426.220947,285.009796 
	C425.440338,285.395477 425.208923,285.593231 425.012360,285.831726 
	C422.916077,287.818726 420.819794,289.805725 417.977844,291.908661 
	C407.642059,292.682159 398.060730,293.675751 388.459930,293.928497 
	C367.359680,294.483887 346.249542,294.663910 325.143463,294.998718 
	C304.203796,295.330872 283.265015,295.737610 262.324310,295.981628 
	C228.403412,296.376953 194.480652,296.612793 160.559967,297.022217 
	C143.280350,297.230743 126.002953,297.645660 108.726410,298.046906 
	C107.109848,298.084412 105.506615,298.695862 103.897186,299.040833 
	C87.045624,284.309784 70.191902,269.581238 53.343395,254.846680 
	C45.275906,247.791412 37.218319,240.724838 29.023827,233.351624 
z
M104.035202,299.352478 
	C105.506615,298.695862 107.109848,298.084412 108.726410,298.046906 
	C126.002953,297.645660 143.280350,297.230743 160.559967,297.022217 
	C194.480652,296.612793 228.403412,296.376953 262.324310,295.981628 
	C283.265015,295.737610 304.203796,295.330872 325.143463,294.998718 
	C346.249542,294.663910 367.359680,294.483887 388.459930,293.928497 
	C398.060730,293.675751 407.642059,292.682159 417.671936,292.032562 
	C410.015320,299.196625 401.919159,306.352966 393.822327,313.508575 
	C391.364105,315.681030 388.984406,317.952240 386.422089,319.994232 
	C383.869965,322.028107 383.143982,324.318390 384.754517,327.620850 
	C383.022766,328.330444 381.236847,328.908966 379.437653,328.953857 
	C363.314178,329.356018 347.189728,329.769775 331.062927,329.977661 
	C299.282104,330.387451 267.499146,330.626801 235.718018,331.016144 
	C214.761673,331.272858 193.806168,331.621399 172.851990,332.019073 
	C160.389328,332.255585 147.931091,332.738434 135.468079,332.927673 
	C133.453827,332.958252 131.425034,332.033264 129.177643,331.221832 
	C132.153137,322.783783 126.959015,318.857452 121.383064,314.606262 
	C115.353737,310.009460 109.885933,304.676147 104.035202,299.352478 
z
M299.110657,439.427643 
	C300.032715,436.401764 301.436188,435.581573 304.244629,437.422363 
	C307.699463,439.686737 311.400177,441.630737 315.158997,443.354797 
	C317.193573,444.287994 319.567047,444.913757 321.792999,444.929718 
	C339.262512,445.054810 356.734283,445.109192 374.203308,444.953705 
	C383.491913,444.871063 392.782684,444.433197 402.056091,443.880768 
	C403.465515,443.796783 404.807404,442.247894 406.140320,441.318878 
	C407.156372,440.610687 408.108765,439.811188 409.461182,439.026550 
	C413.553558,454.957031 417.534088,470.859711 420.843689,486.900787 
	C421.896698,492.004578 419.131531,496.629669 414.676788,499.480591 
	C409.976166,502.488892 404.704498,502.707764 399.903229,499.860077 
	C373.803894,484.380463 347.803436,468.734100 321.764374,453.152802 
	C314.272156,448.669586 306.764893,444.211548 299.110657,439.427643 
z
M289.413269,433.705383 
	C290.739746,433.078247 292.385681,432.184723 293.875031,432.395782 
	C296.311798,432.741089 297.728333,434.023773 294.450684,436.207123 
	C292.630157,435.554321 291.146271,434.744720 289.413269,433.705383 
z
M408.049683,431.596680 
	C407.283569,431.667603 406.476837,431.367340 405.670044,431.067078 
	C406.183746,430.425140 406.697449,429.783203 407.516327,429.071655 
	C407.884033,429.743164 407.946503,430.484344 408.049683,431.596680 
z
M425.277283,285.865723 
	C425.208923,285.593231 425.440338,285.395477 425.912231,285.137238 
	C425.925995,285.323883 425.734100,285.611816 425.277283,285.865723 
z"/>
</svg>